<svg xmlns="http://www.w3.org/2000/svg" viewBox="0 0 184.69 36.95"><title>Asset 1</title><path d="M41,6,33.7,42.05H27.12l3.75-18.2H21.55l-3.64,18.2H11.23L17.86,10c-3.36.34-6.53.82-8.69,2.64C7.49,14,7.78,17.9,9.65,21.21l-6.48,3c-.82-6.62.57-10.85,3.5-13.54,4.08-3.93,11-4.75,18.48-4.8L22.37,19.68h9.36L34.52,6Z" transform="translate(-2.94 -5.85)"/><path d="M66.1,33.74c-3.07,8.74-13.25,12-14.4,4.32-5.09,6.29-13.92,6.44-11.91-4.6l3.07-15.41h6.53c-1.49,7.82-2.69,13.53-3.65,18.86S49.49,39,51.6,35c.1-.48.19-1,3.22-17h6.43c-1.44,7.82-2.5,13.29-3.5,18.86s5,1.39,6.48-3.17Z" transform="translate(-2.94 -5.85)"/><path d="M77.62,34C74,43.82,60.48,46.46,63,33.65l5-25.21h6.48c-1.63,8.17-4.75,23.1-5.85,28.62s5.61,1.39,7.1-3.08Z" transform="translate(-2.94 -5.85)"/><path d="M100.9,33.74c-3.07,8.74-13.25,12-14.4,4.32-5.09,6.29-13.92,6.44-11.91-4.6l3.07-15.41h6.53c-1.49,7.82-2.69,13.53-3.65,18.86S84.29,39,86.4,35c.1-.48.19-1,3.22-17h6.43c-1.44,7.82-2.5,13.29-3.51,18.86s5,1.39,6.49-3.17Z" transform="translate(-2.94 -5.85)"/><path d="M117,15.55c.82-2.06,1.83-5.9-1.82-6.43a6.91,6.91,0,0,0-4.27,1.25,5.4,5.4,0,0,0-2.26,4.56,4.13,4.13,0,0,0,1.2,2.78,17.67,17.67,0,0,0,3.94,3.22,37.54,37.54,0,0,1,4.8,3.55,7.62,7.62,0,0,1,2.83,4.41c3.07,15-22.71,18.68-24.53,7.06a9,9,0,0,1,4.66-9.41L106,31.05c-3.69,1.4-5.23,3.8-4.56,5.67.77,2.26,4.76,3.07,8.07,1.49a7.19,7.19,0,0,0,4-4.51c.91-2.5-1.2-4.61-2.93-6s-3-2.11-4.56-3.26a18.29,18.29,0,0,1-4.13-4.7c-2.35-4.28-1.39-9.51,3.6-12A16.13,16.13,0,0,1,114.34,6c4.27.48,7.77,2.6,9.07,6.25a11.93,11.93,0,0,1,.1,6.14Z" transform="translate(-2.94 -5.85)"/><path d="M139.73,33.55c-3.79,10.37-18.29,13.15-15.6-.29l3.17-15.21h6.62c-1.54,8.11-2.64,13.05-3.74,18.72s6,1.49,7.68-3.22ZM128.83,14.3a3.74,3.74,0,0,1-1-2.69,4,4,0,0,1,1.11-2.69,3.84,3.84,0,0,1,2.73-1.1,3.53,3.53,0,0,1,2.64,1.1,3.65,3.65,0,0,1,1.16,2.69,3.55,3.55,0,0,1-1.2,2.69,3.85,3.85,0,0,1-2.74,1.06A3.66,3.66,0,0,1,128.83,14.3Z" transform="translate(-2.94 -5.85)"/><path d="M159.7,19.63l-4.47,3.7c-3.89-2.84-7.44.86-9.89,4.84l-2.69,13.88h-6.76l4.84-24h6.58l-1,5.23C149.33,18.24,153.41,15.89,159.7,19.63Z" transform="translate(-2.94 -5.85)"/><path d="M187.63,33.84c-3.31,8.83-14.83,11.95-15.45,3.7-5.09,7.58-16,6.19-15.17-3.75.67-7.73,4.46-15.46,13.05-15.74h12.15l-.39,1.82c-1.48,7.34-2.49,11.62-3.6,17.14s6,1.34,7.54-3.17Zm-13-11.38c-2.92-5.33-8.59-.14-10.27,7.63-1.82,8.69,1.34,13.21,8,4.28Z" transform="translate(-2.94 -5.85)"/></svg>