<svg xmlns="http://www.w3.org/2000/svg" viewBox="0 0 63.27 36.95"><title>logo-small</title><path d="M41,6,33.7,42.05H27.12l3.75-18.2H21.55l-3.64,18.2H11.23L17.86,10c-3.36.34-6.53.82-8.69,2.64C7.49,14,7.78,17.9,9.65,21.21l-6.48,3c-.82-6.62.57-10.85,3.5-13.54,4.08-3.93,11-4.75,18.48-4.8L22.37,19.68h9.36L34.52,6Z" transform="translate(-2.94 -5.85)"/><path d="M59.38,15.55c.81-2.06,1.82-5.9-1.83-6.43a6.91,6.91,0,0,0-4.27,1.25A5.4,5.4,0,0,0,51,14.93a4.18,4.18,0,0,0,1.2,2.78,17.67,17.67,0,0,0,3.94,3.22A36.85,36.85,0,0,1,61,24.48a7.62,7.62,0,0,1,2.83,4.41c3.08,15-22.7,18.68-24.53,7.06a9,9,0,0,1,4.66-9.41l4.42,4.51c-3.7,1.4-5.24,3.8-4.56,5.67.76,2.26,4.75,3.07,8.06,1.49a7.19,7.19,0,0,0,4-4.51c.92-2.5-1.2-4.61-2.93-6s-3-2.11-4.56-3.26a18.05,18.05,0,0,1-4.12-4.7c-2.36-4.28-1.4-9.51,3.6-12A16.09,16.09,0,0,1,56.69,6c4.27.48,7.78,2.6,9.07,6.25a11.93,11.93,0,0,1,.1,6.14Z" transform="translate(-2.94 -5.85)"/></svg>